<mxfile host="65bd71144e">
    <diagram id="MPY_lD23Bse4cmmgmdZv" name="PÃ¡gina-1">
        <mxGraphModel dx="932" dy="390" grid="1" gridSize="10" guides="1" tooltips="1" connect="1" arrows="1" fold="1" page="1" pageScale="1" pageWidth="2040" pageHeight="2040" math="0" shadow="1">
            <root>
                <mxCell id="0"/>
                <mxCell id="1" parent="0"/>
                <mxCell id="2" value="Matricular" style="rhombus;whiteSpace=wrap;html=1;" vertex="1" parent="1">
                    <mxGeometry x="974.5" y="662.5" width="80" height="60" as="geometry"/>
                </mxCell>
                <mxCell id="3" value="Aluno" style="whiteSpace=wrap;html=1;" vertex="1" parent="1">
                    <mxGeometry x="742" y="675" width="80" height="35" as="geometry"/>
                </mxCell>
                <mxCell id="4" value="Disciplina" style="whiteSpace=wrap;html=1;" vertex="1" parent="1">
                    <mxGeometry x="974.5" y="820" width="80" height="35" as="geometry"/>
                </mxCell>
                <mxCell id="5" value="Possui" style="rhombus;whiteSpace=wrap;html=1;" vertex="1" parent="1">
                    <mxGeometry x="1217" y="810" width="80" height="60" as="geometry"/>
                </mxCell>
                <mxCell id="6" value="Curso" style="whiteSpace=wrap;html=1;" vertex="1" parent="1">
                    <mxGeometry x="1217" y="675" width="80" height="35" as="geometry"/>
                </mxCell>
                <mxCell id="7" value="" style="endArrow=none;html=1;entryX=0.5;entryY=1;entryDx=0;entryDy=0;exitX=0.5;exitY=0;exitDx=0;exitDy=0;" edge="1" parent="1" source="5" target="6">
                    <mxGeometry width="50" height="50" relative="1" as="geometry">
                        <mxPoint x="992" y="795" as="sourcePoint"/>
                        <mxPoint x="1042" y="745" as="targetPoint"/>
                    </mxGeometry>
                </mxCell>
                <mxCell id="8" value="" style="endArrow=none;html=1;entryX=0;entryY=0.5;entryDx=0;entryDy=0;exitX=1;exitY=0.5;exitDx=0;exitDy=0;" edge="1" parent="1" source="4" target="5">
                    <mxGeometry width="50" height="50" relative="1" as="geometry">
                        <mxPoint x="992" y="795" as="sourcePoint"/>
                        <mxPoint x="1042" y="745" as="targetPoint"/>
                    </mxGeometry>
                </mxCell>
                <mxCell id="9" value="" style="endArrow=none;html=1;exitX=1;exitY=0.5;exitDx=0;exitDy=0;entryX=0;entryY=0.5;entryDx=0;entryDy=0;" edge="1" parent="1" source="16" target="4">
                    <mxGeometry width="50" height="50" relative="1" as="geometry">
                        <mxPoint x="992" y="795" as="sourcePoint"/>
                        <mxPoint x="1042" y="745" as="targetPoint"/>
                    </mxGeometry>
                </mxCell>
                <mxCell id="10" value="" style="endArrow=none;html=1;entryX=0.5;entryY=1;entryDx=0;entryDy=0;exitX=0.5;exitY=0;exitDx=0;exitDy=0;" edge="1" parent="1" source="16" target="3">
                    <mxGeometry width="50" height="50" relative="1" as="geometry">
                        <mxPoint x="992" y="795" as="sourcePoint"/>
                        <mxPoint x="1042" y="745" as="targetPoint"/>
                    </mxGeometry>
                </mxCell>
                <mxCell id="11" value="Cadastra" style="rhombus;whiteSpace=wrap;html=1;" vertex="1" parent="1">
                    <mxGeometry x="742" y="520" width="80" height="60" as="geometry"/>
                </mxCell>
                <mxCell id="12" value="Usuario" style="whiteSpace=wrap;html=1;" vertex="1" parent="1">
                    <mxGeometry x="974.5" y="532.5" width="80" height="35" as="geometry"/>
                </mxCell>
                <mxCell id="13" value="" style="endArrow=none;html=1;entryX=0.5;entryY=1;entryDx=0;entryDy=0;exitX=0.5;exitY=0;exitDx=0;exitDy=0;" edge="1" parent="1" source="3" target="11">
                    <mxGeometry width="50" height="50" relative="1" as="geometry">
                        <mxPoint x="992" y="695" as="sourcePoint"/>
                        <mxPoint x="1042" y="645" as="targetPoint"/>
                    </mxGeometry>
                </mxCell>
                <mxCell id="14" value="" style="endArrow=none;html=1;entryX=1;entryY=0.5;entryDx=0;entryDy=0;exitX=0;exitY=0.5;exitDx=0;exitDy=0;" edge="1" parent="1" source="12" target="11">
                    <mxGeometry width="50" height="50" relative="1" as="geometry">
                        <mxPoint x="992" y="695" as="sourcePoint"/>
                        <mxPoint x="1042" y="645" as="targetPoint"/>
                    </mxGeometry>
                </mxCell>
                <mxCell id="16" value="Cursar" style="rhombus;whiteSpace=wrap;html=1;" vertex="1" parent="1">
                    <mxGeometry x="742" y="807.5" width="80" height="60" as="geometry"/>
                </mxCell>
                <mxCell id="17" value="" style="endArrow=none;html=1;entryX=1;entryY=0.5;entryDx=0;entryDy=0;exitX=0;exitY=0.5;exitDx=0;exitDy=0;" edge="1" parent="1" source="2" target="3">
                    <mxGeometry width="50" height="50" relative="1" as="geometry">
                        <mxPoint x="962" y="665" as="sourcePoint"/>
                        <mxPoint x="1042" y="645" as="targetPoint"/>
                    </mxGeometry>
                </mxCell>
                <mxCell id="18" value="" style="endArrow=none;html=1;entryX=0;entryY=0.5;entryDx=0;entryDy=0;exitX=1;exitY=0.5;exitDx=0;exitDy=0;" edge="1" parent="1" source="2" target="6">
                    <mxGeometry width="50" height="50" relative="1" as="geometry">
                        <mxPoint x="1062" y="695" as="sourcePoint"/>
                        <mxPoint x="1042" y="645" as="targetPoint"/>
                    </mxGeometry>
                </mxCell>
                <mxCell id="19" value="Ministra" style="rhombus;whiteSpace=wrap;html=1;" vertex="1" parent="1">
                    <mxGeometry x="974.5" y="975" width="80" height="60" as="geometry"/>
                </mxCell>
                <mxCell id="20" value="" style="endArrow=none;html=1;entryX=0.5;entryY=1;entryDx=0;entryDy=0;exitX=0.5;exitY=0;exitDx=0;exitDy=0;" edge="1" parent="1" source="19" target="4">
                    <mxGeometry width="50" height="50" relative="1" as="geometry">
                        <mxPoint x="992" y="995" as="sourcePoint"/>
                        <mxPoint x="1042" y="945" as="targetPoint"/>
                    </mxGeometry>
                </mxCell>
                <mxCell id="21" value="Professor" style="whiteSpace=wrap;html=1;" vertex="1" parent="1">
                    <mxGeometry x="974.5" y="1145" width="80" height="35" as="geometry"/>
                </mxCell>
                <mxCell id="22" value="" style="endArrow=none;html=1;entryX=0.5;entryY=0;entryDx=0;entryDy=0;exitX=0.5;exitY=1;exitDx=0;exitDy=0;" edge="1" parent="1" source="19" target="21">
                    <mxGeometry width="50" height="50" relative="1" as="geometry">
                        <mxPoint x="992" y="995" as="sourcePoint"/>
                        <mxPoint x="1042" y="945" as="targetPoint"/>
                    </mxGeometry>
                </mxCell>
                <mxCell id="27" value="Usuario" style="shape=table;startSize=30;container=1;collapsible=0;childLayout=tableLayout;strokeColor=default;fontSize=16;" vertex="1" parent="1">
                    <mxGeometry x="2040" y="480" width="350" height="162.5" as="geometry"/>
                </mxCell>
                <mxCell id="28" value="" style="shape=tableRow;horizontal=0;startSize=0;swimlaneHead=0;swimlaneBody=0;strokeColor=inherit;top=0;left=0;bottom=0;right=0;collapsible=0;dropTarget=0;fillColor=none;points=[[0,0.5],[1,0.5]];portConstraint=eastwest;fontSize=16;" vertex="1" parent="27">
                    <mxGeometry y="30" width="350" height="44" as="geometry"/>
                </mxCell>
                <mxCell id="29" value="ID" style="shape=partialRectangle;html=1;whiteSpace=wrap;connectable=0;strokeColor=inherit;overflow=hidden;fillColor=none;top=0;left=0;bottom=0;right=0;pointerEvents=1;fontSize=16;" vertex="1" parent="28">
                    <mxGeometry width="117" height="44" as="geometry">
                        <mxRectangle width="117" height="44" as="alternateBounds"/>
                    </mxGeometry>
                </mxCell>
                <mxCell id="30" value="Nome" style="shape=partialRectangle;html=1;whiteSpace=wrap;connectable=0;strokeColor=inherit;overflow=hidden;fillColor=none;top=0;left=0;bottom=0;right=0;pointerEvents=1;fontSize=16;" vertex="1" parent="28">
                    <mxGeometry x="117" width="116" height="44" as="geometry">
                        <mxRectangle width="116" height="44" as="alternateBounds"/>
                    </mxGeometry>
                </mxCell>
                <mxCell id="31" value="Dominio" style="shape=partialRectangle;html=1;whiteSpace=wrap;connectable=0;strokeColor=inherit;overflow=hidden;fillColor=none;top=0;left=0;bottom=0;right=0;pointerEvents=1;fontSize=16;" vertex="1" parent="28">
                    <mxGeometry x="233" width="117" height="44" as="geometry">
                        <mxRectangle width="117" height="44" as="alternateBounds"/>
                    </mxGeometry>
                </mxCell>
                <mxCell id="32" value="" style="shape=tableRow;horizontal=0;startSize=0;swimlaneHead=0;swimlaneBody=0;strokeColor=inherit;top=0;left=0;bottom=0;right=0;collapsible=0;dropTarget=0;fillColor=none;points=[[0,0.5],[1,0.5]];portConstraint=eastwest;fontSize=16;" vertex="1" parent="27">
                    <mxGeometry y="74" width="350" height="44" as="geometry"/>
                </mxCell>
                <mxCell id="33" value="01" style="shape=partialRectangle;html=1;whiteSpace=wrap;connectable=0;strokeColor=inherit;overflow=hidden;fillColor=none;top=0;left=0;bottom=0;right=0;pointerEvents=1;fontSize=16;" vertex="1" parent="32">
                    <mxGeometry width="117" height="44" as="geometry">
                        <mxRectangle width="117" height="44" as="alternateBounds"/>
                    </mxGeometry>
                </mxCell>
                <mxCell id="34" value="matheushbr" style="shape=partialRectangle;html=1;whiteSpace=wrap;connectable=0;strokeColor=inherit;overflow=hidden;fillColor=none;top=0;left=0;bottom=0;right=0;pointerEvents=1;fontSize=16;" vertex="1" parent="32">
                    <mxGeometry x="117" width="116" height="44" as="geometry">
                        <mxRectangle width="116" height="44" as="alternateBounds"/>
                    </mxGeometry>
                </mxCell>
                <mxCell id="35" value="unipam.edu.br" style="shape=partialRectangle;html=1;whiteSpace=wrap;connectable=0;strokeColor=inherit;overflow=hidden;fillColor=none;top=0;left=0;bottom=0;right=0;pointerEvents=1;fontSize=16;" vertex="1" parent="32">
                    <mxGeometry x="233" width="117" height="44" as="geometry">
                        <mxRectangle width="117" height="44" as="alternateBounds"/>
                    </mxGeometry>
                </mxCell>
                <mxCell id="36" value="" style="shape=tableRow;horizontal=0;startSize=0;swimlaneHead=0;swimlaneBody=0;strokeColor=inherit;top=0;left=0;bottom=0;right=0;collapsible=0;dropTarget=0;fillColor=none;points=[[0,0.5],[1,0.5]];portConstraint=eastwest;fontSize=16;" vertex="1" parent="27">
                    <mxGeometry y="118" width="350" height="44" as="geometry"/>
                </mxCell>
                <mxCell id="37" value="" style="shape=partialRectangle;html=1;whiteSpace=wrap;connectable=0;strokeColor=inherit;overflow=hidden;fillColor=none;top=0;left=0;bottom=0;right=0;pointerEvents=1;fontSize=16;" vertex="1" parent="36">
                    <mxGeometry width="117" height="44" as="geometry">
                        <mxRectangle width="117" height="44" as="alternateBounds"/>
                    </mxGeometry>
                </mxCell>
                <mxCell id="38" value="" style="shape=partialRectangle;html=1;whiteSpace=wrap;connectable=0;strokeColor=inherit;overflow=hidden;fillColor=none;top=0;left=0;bottom=0;right=0;pointerEvents=1;fontSize=16;" vertex="1" parent="36">
                    <mxGeometry x="117" width="116" height="44" as="geometry">
                        <mxRectangle width="116" height="44" as="alternateBounds"/>
                    </mxGeometry>
                </mxCell>
                <mxCell id="39" value="" style="shape=partialRectangle;html=1;whiteSpace=wrap;connectable=0;strokeColor=inherit;overflow=hidden;fillColor=none;top=0;left=0;bottom=0;right=0;pointerEvents=1;fontSize=16;" vertex="1" parent="36">
                    <mxGeometry x="233" width="117" height="44" as="geometry">
                        <mxRectangle width="117" height="44" as="alternateBounds"/>
                    </mxGeometry>
                </mxCell>
                <mxCell id="40" value="Cliente" style="shape=table;startSize=30;container=1;collapsible=0;childLayout=tableLayout;strokeColor=default;fontSize=16;" vertex="1" parent="1">
                    <mxGeometry x="2480" y="480" width="467" height="162.5" as="geometry"/>
                </mxCell>
                <mxCell id="41" value="" style="shape=tableRow;horizontal=0;startSize=0;swimlaneHead=0;swimlaneBody=0;strokeColor=inherit;top=0;left=0;bottom=0;right=0;collapsible=0;dropTarget=0;fillColor=none;points=[[0,0.5],[1,0.5]];portConstraint=eastwest;fontSize=16;" vertex="1" parent="40">
                    <mxGeometry y="30" width="467" height="44" as="geometry"/>
                </mxCell>
                <mxCell id="42" value="ID" style="shape=partialRectangle;html=1;whiteSpace=wrap;connectable=0;strokeColor=inherit;overflow=hidden;fillColor=none;top=0;left=0;bottom=0;right=0;pointerEvents=1;fontSize=16;" vertex="1" parent="41">
                    <mxGeometry width="117" height="44" as="geometry">
                        <mxRectangle width="117" height="44" as="alternateBounds"/>
                    </mxGeometry>
                </mxCell>
                <mxCell id="43" value="Primeiro_Nome" style="shape=partialRectangle;html=1;whiteSpace=wrap;connectable=0;strokeColor=inherit;overflow=hidden;fillColor=none;top=0;left=0;bottom=0;right=0;pointerEvents=1;fontSize=16;" vertex="1" parent="41">
                    <mxGeometry x="117" width="123" height="44" as="geometry">
                        <mxRectangle width="123" height="44" as="alternateBounds"/>
                    </mxGeometry>
                </mxCell>
                <mxCell id="44" value="Nome_Meio" style="shape=partialRectangle;html=1;whiteSpace=wrap;connectable=0;strokeColor=inherit;overflow=hidden;fillColor=none;top=0;left=0;bottom=0;right=0;pointerEvents=1;fontSize=16;" vertex="1" parent="41">
                    <mxGeometry x="240" width="110" height="44" as="geometry">
                        <mxRectangle width="110" height="44" as="alternateBounds"/>
                    </mxGeometry>
                </mxCell>
                <mxCell id="53" value="ID_Usuario" style="shape=partialRectangle;html=1;whiteSpace=wrap;connectable=0;strokeColor=inherit;overflow=hidden;fillColor=none;top=0;left=0;bottom=0;right=0;pointerEvents=1;fontSize=16;" vertex="1" parent="41">
                    <mxGeometry x="350" width="117" height="44" as="geometry">
                        <mxRectangle width="117" height="44" as="alternateBounds"/>
                    </mxGeometry>
                </mxCell>
                <mxCell id="45" value="" style="shape=tableRow;horizontal=0;startSize=0;swimlaneHead=0;swimlaneBody=0;strokeColor=inherit;top=0;left=0;bottom=0;right=0;collapsible=0;dropTarget=0;fillColor=none;points=[[0,0.5],[1,0.5]];portConstraint=eastwest;fontSize=16;" vertex="1" parent="40">
                    <mxGeometry y="74" width="467" height="44" as="geometry"/>
                </mxCell>
                <mxCell id="46" value="01" style="shape=partialRectangle;html=1;whiteSpace=wrap;connectable=0;strokeColor=inherit;overflow=hidden;fillColor=none;top=0;left=0;bottom=0;right=0;pointerEvents=1;fontSize=16;" vertex="1" parent="45">
                    <mxGeometry width="117" height="44" as="geometry">
                        <mxRectangle width="117" height="44" as="alternateBounds"/>
                    </mxGeometry>
                </mxCell>
                <mxCell id="47" value="Matheus" style="shape=partialRectangle;html=1;whiteSpace=wrap;connectable=0;strokeColor=inherit;overflow=hidden;fillColor=none;top=0;left=0;bottom=0;right=0;pointerEvents=1;fontSize=16;" vertex="1" parent="45">
                    <mxGeometry x="117" width="123" height="44" as="geometry">
                        <mxRectangle width="123" height="44" as="alternateBounds"/>
                    </mxGeometry>
                </mxCell>
                <mxCell id="48" value="Hitalo" style="shape=partialRectangle;html=1;whiteSpace=wrap;connectable=0;strokeColor=inherit;overflow=hidden;fillColor=none;top=0;left=0;bottom=0;right=0;pointerEvents=1;fontSize=16;" vertex="1" parent="45">
                    <mxGeometry x="240" width="110" height="44" as="geometry">
                        <mxRectangle width="110" height="44" as="alternateBounds"/>
                    </mxGeometry>
                </mxCell>
                <mxCell id="54" value="01" style="shape=partialRectangle;html=1;whiteSpace=wrap;connectable=0;strokeColor=inherit;overflow=hidden;fillColor=none;top=0;left=0;bottom=0;right=0;pointerEvents=1;fontSize=16;" vertex="1" parent="45">
                    <mxGeometry x="350" width="117" height="44" as="geometry">
                        <mxRectangle width="117" height="44" as="alternateBounds"/>
                    </mxGeometry>
                </mxCell>
                <mxCell id="49" value="" style="shape=tableRow;horizontal=0;startSize=0;swimlaneHead=0;swimlaneBody=0;strokeColor=inherit;top=0;left=0;bottom=0;right=0;collapsible=0;dropTarget=0;fillColor=none;points=[[0,0.5],[1,0.5]];portConstraint=eastwest;fontSize=16;" vertex="1" parent="40">
                    <mxGeometry y="118" width="467" height="44" as="geometry"/>
                </mxCell>
                <mxCell id="50" value="" style="shape=partialRectangle;html=1;whiteSpace=wrap;connectable=0;strokeColor=inherit;overflow=hidden;fillColor=none;top=0;left=0;bottom=0;right=0;pointerEvents=1;fontSize=16;" vertex="1" parent="49">
                    <mxGeometry width="117" height="44" as="geometry">
                        <mxRectangle width="117" height="44" as="alternateBounds"/>
                    </mxGeometry>
                </mxCell>
                <mxCell id="51" value="" style="shape=partialRectangle;html=1;whiteSpace=wrap;connectable=0;strokeColor=inherit;overflow=hidden;fillColor=none;top=0;left=0;bottom=0;right=0;pointerEvents=1;fontSize=16;" vertex="1" parent="49">
                    <mxGeometry x="117" width="123" height="44" as="geometry">
                        <mxRectangle width="123" height="44" as="alternateBounds"/>
                    </mxGeometry>
                </mxCell>
                <mxCell id="52" value="" style="shape=partialRectangle;html=1;whiteSpace=wrap;connectable=0;strokeColor=inherit;overflow=hidden;fillColor=none;top=0;left=0;bottom=0;right=0;pointerEvents=1;fontSize=16;" vertex="1" parent="49">
                    <mxGeometry x="240" width="110" height="44" as="geometry">
                        <mxRectangle width="110" height="44" as="alternateBounds"/>
                    </mxGeometry>
                </mxCell>
                <mxCell id="55" style="shape=partialRectangle;html=1;whiteSpace=wrap;connectable=0;strokeColor=inherit;overflow=hidden;fillColor=none;top=0;left=0;bottom=0;right=0;pointerEvents=1;fontSize=16;" vertex="1" parent="49">
                    <mxGeometry x="350" width="117" height="44" as="geometry">
                        <mxRectangle width="117" height="44" as="alternateBounds"/>
                    </mxGeometry>
                </mxCell>
                <mxCell id="56" value="Produtos" style="shape=table;startSize=30;container=1;collapsible=0;childLayout=tableLayout;strokeColor=default;fontSize=16;" vertex="1" parent="1">
                    <mxGeometry x="2040" y="920" width="350" height="162.5" as="geometry"/>
                </mxCell>
                <mxCell id="57" value="" style="shape=tableRow;horizontal=0;startSize=0;swimlaneHead=0;swimlaneBody=0;strokeColor=inherit;top=0;left=0;bottom=0;right=0;collapsible=0;dropTarget=0;fillColor=none;points=[[0,0.5],[1,0.5]];portConstraint=eastwest;fontSize=16;" vertex="1" parent="56">
                    <mxGeometry y="30" width="350" height="44" as="geometry"/>
                </mxCell>
                <mxCell id="58" value="ID" style="shape=partialRectangle;html=1;whiteSpace=wrap;connectable=0;strokeColor=inherit;overflow=hidden;fillColor=none;top=0;left=0;bottom=0;right=0;pointerEvents=1;fontSize=16;" vertex="1" parent="57">
                    <mxGeometry width="117" height="44" as="geometry">
                        <mxRectangle width="117" height="44" as="alternateBounds"/>
                    </mxGeometry>
                </mxCell>
                <mxCell id="59" value="Nome" style="shape=partialRectangle;html=1;whiteSpace=wrap;connectable=0;strokeColor=inherit;overflow=hidden;fillColor=none;top=0;left=0;bottom=0;right=0;pointerEvents=1;fontSize=16;" vertex="1" parent="57">
                    <mxGeometry x="117" width="116" height="44" as="geometry">
                        <mxRectangle width="116" height="44" as="alternateBounds"/>
                    </mxGeometry>
                </mxCell>
                <mxCell id="60" value="PreÃ§o" style="shape=partialRectangle;html=1;whiteSpace=wrap;connectable=0;strokeColor=inherit;overflow=hidden;fillColor=none;top=0;left=0;bottom=0;right=0;pointerEvents=1;fontSize=16;" vertex="1" parent="57">
                    <mxGeometry x="233" width="117" height="44" as="geometry">
                        <mxRectangle width="117" height="44" as="alternateBounds"/>
                    </mxGeometry>
                </mxCell>
                <mxCell id="61" value="" style="shape=tableRow;horizontal=0;startSize=0;swimlaneHead=0;swimlaneBody=0;strokeColor=inherit;top=0;left=0;bottom=0;right=0;collapsible=0;dropTarget=0;fillColor=none;points=[[0,0.5],[1,0.5]];portConstraint=eastwest;fontSize=16;" vertex="1" parent="56">
                    <mxGeometry y="74" width="350" height="44" as="geometry"/>
                </mxCell>
                <mxCell id="62" value="59" style="shape=partialRectangle;html=1;whiteSpace=wrap;connectable=0;strokeColor=inherit;overflow=hidden;fillColor=none;top=0;left=0;bottom=0;right=0;pointerEvents=1;fontSize=16;" vertex="1" parent="61">
                    <mxGeometry width="117" height="44" as="geometry">
                        <mxRectangle width="117" height="44" as="alternateBounds"/>
                    </mxGeometry>
                </mxCell>
                <mxCell id="63" value="Mouse" style="shape=partialRectangle;html=1;whiteSpace=wrap;connectable=0;strokeColor=inherit;overflow=hidden;fillColor=none;top=0;left=0;bottom=0;right=0;pointerEvents=1;fontSize=16;" vertex="1" parent="61">
                    <mxGeometry x="117" width="116" height="44" as="geometry">
                        <mxRectangle width="116" height="44" as="alternateBounds"/>
                    </mxGeometry>
                </mxCell>
                <mxCell id="64" value="1000,00" style="shape=partialRectangle;html=1;whiteSpace=wrap;connectable=0;strokeColor=inherit;overflow=hidden;fillColor=none;top=0;left=0;bottom=0;right=0;pointerEvents=1;fontSize=16;" vertex="1" parent="61">
                    <mxGeometry x="233" width="117" height="44" as="geometry">
                        <mxRectangle width="117" height="44" as="alternateBounds"/>
                    </mxGeometry>
                </mxCell>
                <mxCell id="65" value="" style="shape=tableRow;horizontal=0;startSize=0;swimlaneHead=0;swimlaneBody=0;strokeColor=inherit;top=0;left=0;bottom=0;right=0;collapsible=0;dropTarget=0;fillColor=none;points=[[0,0.5],[1,0.5]];portConstraint=eastwest;fontSize=16;" vertex="1" parent="56">
                    <mxGeometry y="118" width="350" height="44" as="geometry"/>
                </mxCell>
                <mxCell id="66" value="60" style="shape=partialRectangle;html=1;whiteSpace=wrap;connectable=0;strokeColor=inherit;overflow=hidden;fillColor=none;top=0;left=0;bottom=0;right=0;pointerEvents=1;fontSize=16;" vertex="1" parent="65">
                    <mxGeometry width="117" height="44" as="geometry">
                        <mxRectangle width="117" height="44" as="alternateBounds"/>
                    </mxGeometry>
                </mxCell>
                <mxCell id="67" value="Teclado" style="shape=partialRectangle;html=1;whiteSpace=wrap;connectable=0;strokeColor=inherit;overflow=hidden;fillColor=none;top=0;left=0;bottom=0;right=0;pointerEvents=1;fontSize=16;" vertex="1" parent="65">
                    <mxGeometry x="117" width="116" height="44" as="geometry">
                        <mxRectangle width="116" height="44" as="alternateBounds"/>
                    </mxGeometry>
                </mxCell>
                <mxCell id="68" value="800,00" style="shape=partialRectangle;html=1;whiteSpace=wrap;connectable=0;strokeColor=inherit;overflow=hidden;fillColor=none;top=0;left=0;bottom=0;right=0;pointerEvents=1;fontSize=16;" vertex="1" parent="65">
                    <mxGeometry x="233" width="117" height="44" as="geometry">
                        <mxRectangle width="117" height="44" as="alternateBounds"/>
                    </mxGeometry>
                </mxCell>
                <mxCell id="69" value="Produtos_Venda" style="shape=table;startSize=30;container=1;collapsible=0;childLayout=tableLayout;strokeColor=default;fontSize=16;" vertex="1" parent="1">
                    <mxGeometry x="2550" y="920" width="350" height="206.5" as="geometry"/>
                </mxCell>
                <mxCell id="70" value="" style="shape=tableRow;horizontal=0;startSize=0;swimlaneHead=0;swimlaneBody=0;strokeColor=inherit;top=0;left=0;bottom=0;right=0;collapsible=0;dropTarget=0;fillColor=none;points=[[0,0.5],[1,0.5]];portConstraint=eastwest;fontSize=16;" vertex="1" parent="69">
                    <mxGeometry y="30" width="350" height="44" as="geometry"/>
                </mxCell>
                <mxCell id="71" value="ID" style="shape=partialRectangle;html=1;whiteSpace=wrap;connectable=0;strokeColor=inherit;overflow=hidden;fillColor=none;top=0;left=0;bottom=0;right=0;pointerEvents=1;fontSize=16;" vertex="1" parent="70">
                    <mxGeometry width="117" height="44" as="geometry">
                        <mxRectangle width="117" height="44" as="alternateBounds"/>
                    </mxGeometry>
                </mxCell>
                <mxCell id="72" value="ID_produto" style="shape=partialRectangle;html=1;whiteSpace=wrap;connectable=0;strokeColor=inherit;overflow=hidden;fillColor=none;top=0;left=0;bottom=0;right=0;pointerEvents=1;fontSize=16;" vertex="1" parent="70">
                    <mxGeometry x="117" width="116" height="44" as="geometry">
                        <mxRectangle width="116" height="44" as="alternateBounds"/>
                    </mxGeometry>
                </mxCell>
                <mxCell id="73" value="Id_Venda" style="shape=partialRectangle;html=1;whiteSpace=wrap;connectable=0;strokeColor=inherit;overflow=hidden;fillColor=none;top=0;left=0;bottom=0;right=0;pointerEvents=1;fontSize=16;" vertex="1" parent="70">
                    <mxGeometry x="233" width="117" height="44" as="geometry">
                        <mxRectangle width="117" height="44" as="alternateBounds"/>
                    </mxGeometry>
                </mxCell>
                <mxCell id="75" value="" style="shape=tableRow;horizontal=0;startSize=0;swimlaneHead=0;swimlaneBody=0;strokeColor=inherit;top=0;left=0;bottom=0;right=0;collapsible=0;dropTarget=0;fillColor=none;points=[[0,0.5],[1,0.5]];portConstraint=eastwest;fontSize=16;" vertex="1" parent="69">
                    <mxGeometry y="74" width="350" height="44" as="geometry"/>
                </mxCell>
                <mxCell id="76" value="01" style="shape=partialRectangle;html=1;whiteSpace=wrap;connectable=0;strokeColor=inherit;overflow=hidden;fillColor=none;top=0;left=0;bottom=0;right=0;pointerEvents=1;fontSize=16;" vertex="1" parent="75">
                    <mxGeometry width="117" height="44" as="geometry">
                        <mxRectangle width="117" height="44" as="alternateBounds"/>
                    </mxGeometry>
                </mxCell>
                <mxCell id="77" value="59" style="shape=partialRectangle;html=1;whiteSpace=wrap;connectable=0;strokeColor=inherit;overflow=hidden;fillColor=none;top=0;left=0;bottom=0;right=0;pointerEvents=1;fontSize=16;" vertex="1" parent="75">
                    <mxGeometry x="117" width="116" height="44" as="geometry">
                        <mxRectangle width="116" height="44" as="alternateBounds"/>
                    </mxGeometry>
                </mxCell>
                <mxCell id="78" value="115" style="shape=partialRectangle;html=1;whiteSpace=wrap;connectable=0;strokeColor=inherit;overflow=hidden;fillColor=none;top=0;left=0;bottom=0;right=0;pointerEvents=1;fontSize=16;" vertex="1" parent="75">
                    <mxGeometry x="233" width="117" height="44" as="geometry">
                        <mxRectangle width="117" height="44" as="alternateBounds"/>
                    </mxGeometry>
                </mxCell>
                <mxCell id="80" value="" style="shape=tableRow;horizontal=0;startSize=0;swimlaneHead=0;swimlaneBody=0;strokeColor=inherit;top=0;left=0;bottom=0;right=0;collapsible=0;dropTarget=0;fillColor=none;points=[[0,0.5],[1,0.5]];portConstraint=eastwest;fontSize=16;" vertex="1" parent="69">
                    <mxGeometry y="118" width="350" height="44" as="geometry"/>
                </mxCell>
                <mxCell id="81" value="02" style="shape=partialRectangle;html=1;whiteSpace=wrap;connectable=0;strokeColor=inherit;overflow=hidden;fillColor=none;top=0;left=0;bottom=0;right=0;pointerEvents=1;fontSize=16;" vertex="1" parent="80">
                    <mxGeometry width="117" height="44" as="geometry">
                        <mxRectangle width="117" height="44" as="alternateBounds"/>
                    </mxGeometry>
                </mxCell>
                <mxCell id="82" value="60" style="shape=partialRectangle;html=1;whiteSpace=wrap;connectable=0;strokeColor=inherit;overflow=hidden;fillColor=none;top=0;left=0;bottom=0;right=0;pointerEvents=1;fontSize=16;" vertex="1" parent="80">
                    <mxGeometry x="117" width="116" height="44" as="geometry">
                        <mxRectangle width="116" height="44" as="alternateBounds"/>
                    </mxGeometry>
                </mxCell>
                <mxCell id="83" value="115" style="shape=partialRectangle;html=1;whiteSpace=wrap;connectable=0;strokeColor=inherit;overflow=hidden;fillColor=none;top=0;left=0;bottom=0;right=0;pointerEvents=1;fontSize=16;" vertex="1" parent="80">
                    <mxGeometry x="233" width="117" height="44" as="geometry">
                        <mxRectangle width="117" height="44" as="alternateBounds"/>
                    </mxGeometry>
                </mxCell>
                <mxCell id="111" style="shape=tableRow;horizontal=0;startSize=0;swimlaneHead=0;swimlaneBody=0;strokeColor=inherit;top=0;left=0;bottom=0;right=0;collapsible=0;dropTarget=0;fillColor=none;points=[[0,0.5],[1,0.5]];portConstraint=eastwest;fontSize=16;" vertex="1" parent="69">
                    <mxGeometry y="162" width="350" height="45" as="geometry"/>
                </mxCell>
                <mxCell id="112" value="03" style="shape=partialRectangle;html=1;whiteSpace=wrap;connectable=0;strokeColor=inherit;overflow=hidden;fillColor=none;top=0;left=0;bottom=0;right=0;pointerEvents=1;fontSize=16;" vertex="1" parent="111">
                    <mxGeometry width="117" height="45" as="geometry">
                        <mxRectangle width="117" height="45" as="alternateBounds"/>
                    </mxGeometry>
                </mxCell>
                <mxCell id="113" value="59" style="shape=partialRectangle;html=1;whiteSpace=wrap;connectable=0;strokeColor=inherit;overflow=hidden;fillColor=none;top=0;left=0;bottom=0;right=0;pointerEvents=1;fontSize=16;" vertex="1" parent="111">
                    <mxGeometry x="117" width="116" height="45" as="geometry">
                        <mxRectangle width="116" height="45" as="alternateBounds"/>
                    </mxGeometry>
                </mxCell>
                <mxCell id="114" value="116" style="shape=partialRectangle;html=1;whiteSpace=wrap;connectable=0;strokeColor=inherit;overflow=hidden;fillColor=none;top=0;left=0;bottom=0;right=0;pointerEvents=1;fontSize=16;" vertex="1" parent="111">
                    <mxGeometry x="233" width="117" height="45" as="geometry">
                        <mxRectangle width="117" height="45" as="alternateBounds"/>
                    </mxGeometry>
                </mxCell>
                <mxCell id="85" value="Vendas" style="shape=table;startSize=30;container=1;collapsible=0;childLayout=tableLayout;strokeColor=default;fontSize=16;" vertex="1" parent="1">
                    <mxGeometry x="3050" y="920" width="467" height="162.5" as="geometry"/>
                </mxCell>
                <mxCell id="86" value="" style="shape=tableRow;horizontal=0;startSize=0;swimlaneHead=0;swimlaneBody=0;strokeColor=inherit;top=0;left=0;bottom=0;right=0;collapsible=0;dropTarget=0;fillColor=none;points=[[0,0.5],[1,0.5]];portConstraint=eastwest;fontSize=16;" vertex="1" parent="85">
                    <mxGeometry y="30" width="467" height="44" as="geometry"/>
                </mxCell>
                <mxCell id="87" value="ID" style="shape=partialRectangle;html=1;whiteSpace=wrap;connectable=0;strokeColor=inherit;overflow=hidden;fillColor=none;top=0;left=0;bottom=0;right=0;pointerEvents=1;fontSize=16;" vertex="1" parent="86">
                    <mxGeometry width="117" height="44" as="geometry">
                        <mxRectangle width="117" height="44" as="alternateBounds"/>
                    </mxGeometry>
                </mxCell>
                <mxCell id="88" value="Codigo" style="shape=partialRectangle;html=1;whiteSpace=wrap;connectable=0;strokeColor=inherit;overflow=hidden;fillColor=none;top=0;left=0;bottom=0;right=0;pointerEvents=1;fontSize=16;" vertex="1" parent="86">
                    <mxGeometry x="117" width="116" height="44" as="geometry">
                        <mxRectangle width="116" height="44" as="alternateBounds"/>
                    </mxGeometry>
                </mxCell>
                <mxCell id="89" value="Valor_Total" style="shape=partialRectangle;html=1;whiteSpace=wrap;connectable=0;strokeColor=inherit;overflow=hidden;fillColor=none;top=0;left=0;bottom=0;right=0;pointerEvents=1;fontSize=16;" vertex="1" parent="86">
                    <mxGeometry x="233" width="117" height="44" as="geometry">
                        <mxRectangle width="117" height="44" as="alternateBounds"/>
                    </mxGeometry>
                </mxCell>
                <mxCell id="101" value="Id_Usuario" style="shape=partialRectangle;html=1;whiteSpace=wrap;connectable=0;strokeColor=inherit;overflow=hidden;fillColor=none;top=0;left=0;bottom=0;right=0;pointerEvents=1;fontSize=16;" vertex="1" parent="86">
                    <mxGeometry x="350" width="117" height="44" as="geometry">
                        <mxRectangle width="117" height="44" as="alternateBounds"/>
                    </mxGeometry>
                </mxCell>
                <mxCell id="91" value="" style="shape=tableRow;horizontal=0;startSize=0;swimlaneHead=0;swimlaneBody=0;strokeColor=inherit;top=0;left=0;bottom=0;right=0;collapsible=0;dropTarget=0;fillColor=none;points=[[0,0.5],[1,0.5]];portConstraint=eastwest;fontSize=16;" vertex="1" parent="85">
                    <mxGeometry y="74" width="467" height="44" as="geometry"/>
                </mxCell>
                <mxCell id="92" value="115" style="shape=partialRectangle;html=1;whiteSpace=wrap;connectable=0;strokeColor=inherit;overflow=hidden;fillColor=none;top=0;left=0;bottom=0;right=0;pointerEvents=1;fontSize=16;" vertex="1" parent="91">
                    <mxGeometry width="117" height="44" as="geometry">
                        <mxRectangle width="117" height="44" as="alternateBounds"/>
                    </mxGeometry>
                </mxCell>
                <mxCell id="93" value="#VT3" style="shape=partialRectangle;html=1;whiteSpace=wrap;connectable=0;strokeColor=inherit;overflow=hidden;fillColor=none;top=0;left=0;bottom=0;right=0;pointerEvents=1;fontSize=16;" vertex="1" parent="91">
                    <mxGeometry x="117" width="116" height="44" as="geometry">
                        <mxRectangle width="116" height="44" as="alternateBounds"/>
                    </mxGeometry>
                </mxCell>
                <mxCell id="94" value="1800,00" style="shape=partialRectangle;html=1;whiteSpace=wrap;connectable=0;strokeColor=inherit;overflow=hidden;fillColor=none;top=0;left=0;bottom=0;right=0;pointerEvents=1;fontSize=16;" vertex="1" parent="91">
                    <mxGeometry x="233" width="117" height="44" as="geometry">
                        <mxRectangle width="117" height="44" as="alternateBounds"/>
                    </mxGeometry>
                </mxCell>
                <mxCell id="102" value="01" style="shape=partialRectangle;html=1;whiteSpace=wrap;connectable=0;strokeColor=inherit;overflow=hidden;fillColor=none;top=0;left=0;bottom=0;right=0;pointerEvents=1;fontSize=16;" vertex="1" parent="91">
                    <mxGeometry x="350" width="117" height="44" as="geometry">
                        <mxRectangle width="117" height="44" as="alternateBounds"/>
                    </mxGeometry>
                </mxCell>
                <mxCell id="96" value="" style="shape=tableRow;horizontal=0;startSize=0;swimlaneHead=0;swimlaneBody=0;strokeColor=inherit;top=0;left=0;bottom=0;right=0;collapsible=0;dropTarget=0;fillColor=none;points=[[0,0.5],[1,0.5]];portConstraint=eastwest;fontSize=16;" vertex="1" parent="85">
                    <mxGeometry y="118" width="467" height="44" as="geometry"/>
                </mxCell>
                <mxCell id="97" value="116" style="shape=partialRectangle;html=1;whiteSpace=wrap;connectable=0;strokeColor=inherit;overflow=hidden;fillColor=none;top=0;left=0;bottom=0;right=0;pointerEvents=1;fontSize=16;" vertex="1" parent="96">
                    <mxGeometry width="117" height="44" as="geometry">
                        <mxRectangle width="117" height="44" as="alternateBounds"/>
                    </mxGeometry>
                </mxCell>
                <mxCell id="98" value="#VT3" style="shape=partialRectangle;html=1;whiteSpace=wrap;connectable=0;strokeColor=inherit;overflow=hidden;fillColor=none;top=0;left=0;bottom=0;right=0;pointerEvents=1;fontSize=16;" vertex="1" parent="96">
                    <mxGeometry x="117" width="116" height="44" as="geometry">
                        <mxRectangle width="116" height="44" as="alternateBounds"/>
                    </mxGeometry>
                </mxCell>
                <mxCell id="99" value="800,00" style="shape=partialRectangle;html=1;whiteSpace=wrap;connectable=0;strokeColor=inherit;overflow=hidden;fillColor=none;top=0;left=0;bottom=0;right=0;pointerEvents=1;fontSize=16;" vertex="1" parent="96">
                    <mxGeometry x="233" width="117" height="44" as="geometry">
                        <mxRectangle width="117" height="44" as="alternateBounds"/>
                    </mxGeometry>
                </mxCell>
                <mxCell id="103" value="02" style="shape=partialRectangle;html=1;whiteSpace=wrap;connectable=0;strokeColor=inherit;overflow=hidden;fillColor=none;top=0;left=0;bottom=0;right=0;pointerEvents=1;fontSize=16;" vertex="1" parent="96">
                    <mxGeometry x="350" width="117" height="44" as="geometry">
                        <mxRectangle width="117" height="44" as="alternateBounds"/>
                    </mxGeometry>
                </mxCell>
                <mxCell id="104" value="Vendidos" style="rhombus;whiteSpace=wrap;html=1;" vertex="1" parent="1">
                    <mxGeometry x="2685" y="1372" width="80" height="80" as="geometry"/>
                </mxCell>
                <mxCell id="105" value="Vendas" style="whiteSpace=wrap;html=1;" vertex="1" parent="1">
                    <mxGeometry x="2835" y="1382" width="120" height="60" as="geometry"/>
                </mxCell>
                <mxCell id="106" value="Produtos" style="whiteSpace=wrap;html=1;" vertex="1" parent="1">
                    <mxGeometry x="2495" y="1382" width="120" height="60" as="geometry"/>
                </mxCell>
                <mxCell id="107" value="" style="endArrow=none;html=1;entryX=0;entryY=0.5;entryDx=0;entryDy=0;exitX=1;exitY=0.5;exitDx=0;exitDy=0;" edge="1" parent="1" source="104" target="105">
                    <mxGeometry width="50" height="50" relative="1" as="geometry">
                        <mxPoint x="2705" y="1472" as="sourcePoint"/>
                        <mxPoint x="2755" y="1422" as="targetPoint"/>
                    </mxGeometry>
                </mxCell>
                <mxCell id="108" value="" style="endArrow=none;html=1;entryX=1;entryY=0.5;entryDx=0;entryDy=0;exitX=0;exitY=0.5;exitDx=0;exitDy=0;" edge="1" parent="1" source="104" target="106">
                    <mxGeometry width="50" height="50" relative="1" as="geometry">
                        <mxPoint x="2705" y="1472" as="sourcePoint"/>
                        <mxPoint x="2755" y="1422" as="targetPoint"/>
                    </mxGeometry>
                </mxCell>
                <mxCell id="109" value="M" style="text;html=1;align=center;verticalAlign=middle;resizable=0;points=[];autosize=1;strokeColor=none;fillColor=none;" vertex="1" parent="1">
                    <mxGeometry x="2650" y="1370" width="30" height="30" as="geometry"/>
                </mxCell>
                <mxCell id="110" value="N" style="text;html=1;align=center;verticalAlign=middle;resizable=0;points=[];autosize=1;strokeColor=none;fillColor=none;" vertex="1" parent="1">
                    <mxGeometry x="2770" y="1370" width="30" height="30" as="geometry"/>
                </mxCell>
                <mxCell id="115" value="Cadastrar" style="rhombus;whiteSpace=wrap;html=1;" vertex="1" parent="1">
                    <mxGeometry x="2685" y="1512" width="80" height="80" as="geometry"/>
                </mxCell>
                <mxCell id="116" value="Cliente" style="whiteSpace=wrap;html=1;" vertex="1" parent="1">
                    <mxGeometry x="2835" y="1522" width="120" height="60" as="geometry"/>
                </mxCell>
                <mxCell id="117" value="Usuario" style="whiteSpace=wrap;html=1;" vertex="1" parent="1">
                    <mxGeometry x="2495" y="1522" width="120" height="60" as="geometry"/>
                </mxCell>
                <mxCell id="118" value="" style="endArrow=none;html=1;entryX=0;entryY=0.5;entryDx=0;entryDy=0;exitX=1;exitY=0.5;exitDx=0;exitDy=0;" edge="1" parent="1" source="115" target="116">
                    <mxGeometry width="50" height="50" relative="1" as="geometry">
                        <mxPoint x="2705" y="1612" as="sourcePoint"/>
                        <mxPoint x="2755" y="1562" as="targetPoint"/>
                    </mxGeometry>
                </mxCell>
                <mxCell id="119" value="" style="endArrow=none;html=1;entryX=1;entryY=0.5;entryDx=0;entryDy=0;exitX=0;exitY=0.5;exitDx=0;exitDy=0;" edge="1" parent="1" source="115" target="117">
                    <mxGeometry width="50" height="50" relative="1" as="geometry">
                        <mxPoint x="2705" y="1612" as="sourcePoint"/>
                        <mxPoint x="2755" y="1562" as="targetPoint"/>
                    </mxGeometry>
                </mxCell>
                <mxCell id="120" value="1" style="text;html=1;align=center;verticalAlign=middle;resizable=0;points=[];autosize=1;strokeColor=none;fillColor=none;" vertex="1" parent="1">
                    <mxGeometry x="2650" y="1510" width="30" height="30" as="geometry"/>
                </mxCell>
                <mxCell id="121" value="1" style="text;html=1;align=center;verticalAlign=middle;resizable=0;points=[];autosize=1;strokeColor=none;fillColor=none;" vertex="1" parent="1">
                    <mxGeometry x="2770" y="1510" width="30" height="30" as="geometry"/>
                </mxCell>
                <mxCell id="122" value="Nome" style="ellipse;whiteSpace=wrap;html=1;" vertex="1" parent="1">
                    <mxGeometry x="2300" y="1300" width="80" height="80" as="geometry"/>
                </mxCell>
                <mxCell id="123" value="PreÃ§o" style="ellipse;whiteSpace=wrap;html=1;" vertex="1" parent="1">
                    <mxGeometry x="2300" y="1400" width="80" height="80" as="geometry"/>
                </mxCell>
                <mxCell id="124" value="" style="endArrow=none;html=1;entryX=1;entryY=0.5;entryDx=0;entryDy=0;exitX=0;exitY=0.5;exitDx=0;exitDy=0;" edge="1" parent="1" source="106" target="122">
                    <mxGeometry width="50" height="50" relative="1" as="geometry">
                        <mxPoint x="2490" y="1410" as="sourcePoint"/>
                        <mxPoint x="2590" y="1390" as="targetPoint"/>
                    </mxGeometry>
                </mxCell>
                <mxCell id="126" value="" style="endArrow=none;html=1;exitX=0;exitY=0.5;exitDx=0;exitDy=0;" edge="1" parent="1" source="106" target="123">
                    <mxGeometry width="50" height="50" relative="1" as="geometry">
                        <mxPoint x="2540" y="1440" as="sourcePoint"/>
                        <mxPoint x="2590" y="1390" as="targetPoint"/>
                    </mxGeometry>
                </mxCell>
            </root>
        </mxGraphModel>
    </diagram>
</mxfile>